<?xml version="1.0" standalone="no"?>
<!DOCTYPE svg PUBLIC "-//W3C//DTD SVG 20010904//EN"
 "http://www.w3.org/TR/2001/REC-SVG-20010904/DTD/svg10.dtd">
<svg version="1.0" xmlns="http://www.w3.org/2000/svg"
 width="700.000000pt" height="700.000000pt" viewBox="0 0 700.000000 700.000000"
 preserveAspectRatio="xMidYMid meet">
<metadata>
Created by potrace 1.14, written by Peter Selinger 2001-2017
</metadata>
<g transform="translate(0.000000,700.000000) scale(0.100000,-0.100000)"
fill="#000000" stroke="none">
<path d="M2692 6895 c3 -3 -24 -34 -59 -68 -122 -117 -217 -263 -417 -641 -66
-125 -357 -706 -439 -876 -30 -63 -92 -191 -137 -285 -45 -93 -91 -190 -102
-215 -12 -25 -52 -110 -89 -189 -38 -79 -69 -145 -69 -146 0 -2 -32 -69 -70
-150 -39 -81 -70 -148 -70 -150 0 -1 -24 -54 -54 -116 -29 -63 -64 -136 -76
-164 -13 -27 -43 -93 -67 -145 -25 -52 -79 -169 -120 -260 -42 -91 -89 -194
-105 -230 -39 -84 -60 -129 -153 -335 -43 -93 -93 -203 -111 -243 -19 -41 -34
-75 -34 -77 0 -2 -15 -36 -34 -77 -106 -228 -160 -351 -181 -413 -42 -122 -44
-314 -4 -420 25 -66 116 -167 178 -200 148 -76 359 -74 641 6 110 31 332 112
435 159 33 15 94 42 135 60 41 18 104 46 140 62 36 17 121 55 190 85 69 31
167 75 218 99 52 24 95 44 97 44 2 0 41 17 87 39 46 21 108 50 138 64 30 13
85 39 123 56 37 17 95 44 130 60 34 16 107 50 162 76 55 26 127 60 160 75 33
15 114 54 180 85 66 32 152 72 190 90 39 18 169 81 290 140 121 59 265 129
320 155 106 51 344 165 508 245 55 26 103 43 107 39 5 -5 79 -173 165 -374 85
-201 160 -374 165 -385 5 -11 18 -42 30 -70 51 -120 54 -126 94 -218 14 -32
26 -60 26 -62 0 -2 11 -28 24 -57 13 -29 31 -71 40 -92 36 -87 199 -192 334
-216 189 -34 391 76 535 292 43 65 105 183 136 258 12 30 26 64 31 75 5 11 23
67 40 125 17 58 51 168 75 245 24 77 64 208 90 290 25 83 50 161 55 175 4 14
22 72 40 130 17 58 37 123 45 145 66 186 78 289 50 424 -42 198 -164 321 -349
352 -88 15 -206 0 -331 -42 -50 -17 -315 -143 -599 -285 -279 -140 -515 -254
-523 -252 -9 2 -145 307 -354 798 -186 437 -343 804 -348 815 -6 11 -35 81
-67 155 -53 128 -84 200 -104 245 -5 11 -18 43 -30 70 -12 28 -25 59 -30 70
-32 73 -50 115 -50 119 0 2 -13 33 -29 68 -16 35 -48 108 -70 163 -45 108 -45
106 -90 208 -17 38 -31 71 -31 74 0 7 -24 60 -76 169 -50 106 -137 226 -217
302 l-55 52 -333 0 c-183 0 -330 -2 -327 -5z m444 -240 c86 -55 174 -178 238
-330 21 -49 44 -103 51 -120 123 -273 1174 -2758 1170 -2765 -4 -6 -48 -30
-98 -54 -51 -24 -177 -85 -282 -136 -104 -51 -230 -112 -280 -135 -49 -23
-180 -86 -290 -140 -110 -53 -240 -116 -290 -140 -49 -23 -142 -68 -206 -98
-64 -31 -152 -72 -195 -93 -130 -60 -715 -330 -769 -354 -27 -12 -79 -36 -115
-52 -36 -17 -103 -47 -150 -68 -47 -21 -170 -76 -275 -122 -356 -160 -472
-205 -655 -255 -78 -22 -117 -27 -222 -27 -149 -1 -166 7 -175 88 -10 84 15
169 110 376 14 30 65 145 115 255 49 110 102 227 117 260 35 78 468 1019 510
1110 18 39 47 102 65 140 18 39 51 108 73 155 22 47 56 121 77 165 91 195 197
420 252 535 33 69 84 175 113 235 158 331 484 977 574 1139 164 293 271 423
380 463 48 17 94 8 157 -32z m3213 -2812 c22 -19 51 -106 51 -157 0 -16 -18
-88 -41 -160 -22 -72 -61 -196 -85 -276 -25 -80 -49 -156 -54 -170 -5 -14 -18
-59 -30 -100 -12 -41 -32 -106 -45 -145 -13 -38 -37 -117 -55 -175 -69 -231
-94 -300 -150 -415 -99 -202 -203 -295 -300 -266 -51 15 -82 45 -105 101 -10
25 -27 65 -38 90 -16 36 -455 1063 -473 1106 -6 14 1019 525 1111 554 39 12
75 23 80 25 33 11 115 3 134 -12z"/>
</g>
</svg>
